<?xml version="1.0" encoding="utf-8"?>
<!-- Generator: Adobe Illustrator 23.1.0, SVG Export Plug-In . SVG Version: 6.00 Build 0)  -->
<svg version="1.1" id="Capa_1" xmlns="http://www.w3.org/2000/svg" xmlns:xlink="http://www.w3.org/1999/xlink" x="0px" y="0px"
	 viewBox="0 0 24 24" style="enable-background:new 0 0 24 24;" xml:space="preserve">
<style type="text/css">
	.st0{fill:#FFFFFF;}
</style>
<g>
	<path class="st0" d="M19.6,9.8l-5.8,0l0-5.4c0-1-0.8-1.9-1.9-1.9c-1,0-1.9,0.8-1.9,1.9v5.4l-5.7,0c-1,0-1.9,0.8-1.9,1.9
		c0,1,0.8,1.9,1.9,1.9h5.7v6.1c0,1,0.8,1.9,1.9,1.9s1.9-0.8,1.9-1.9v-6.1h5.8c1,0,1.9-0.8,1.9-1.9C21.5,10.6,20.6,9.8,19.6,9.8z"/>
</g>
</svg>
