<?xml version="1.0" encoding="utf-8"?>
<!-- Generator: Adobe Illustrator 23.1.0, SVG Export Plug-In . SVG Version: 6.00 Build 0)  -->
<svg version="1.1" id="Camada_1" xmlns="http://www.w3.org/2000/svg" xmlns:xlink="http://www.w3.org/1999/xlink" x="0px" y="0px"
	 viewBox="0 0 24 24" style="enable-background:new 0 0 24 24;" xml:space="preserve">
<style type="text/css">
	.st0{fill:none;}
	.st1{fill:#FFFFFF;}
</style>
<g>
	<rect class="st0" width="24" height="24"/>
	<rect class="st0" width="24" height="24"/>
</g>
<g>
	<g>
		<path class="st1" d="M17,11c0.3,0,0.7,0,1,0.1V7.6c0-0.8-0.5-1.5-1.2-1.8l-5.5-2.4c-0.5-0.2-1.1-0.2-1.6,0L4.2,5.8
			C3.5,6.1,3,6.8,3,7.6v3.6c0,4.5,3.2,8.8,7.5,9.8c0.6-0.1,1.1-0.3,1.6-0.5c-0.7-1-1.1-2.2-1.1-3.5C11,13.7,13.7,11,17,11z"/>
		<path class="st1" d="M17,13c-2.2,0-4,1.8-4,4s1.8,4,4,4s4-1.8,4-4S19.2,13,17,13z M17,14.4c0.6,0,1.1,0.5,1.1,1.1
			c0,0.6-0.5,1.1-1.1,1.1s-1.1-0.5-1.1-1.1S16.4,14.4,17,14.4z M17,19.8c-0.9,0-1.7-0.5-2.2-1.2c0.1-0.7,1.5-1.1,2.2-1.1
			s2.2,0.4,2.2,1.1C18.7,19.3,17.9,19.8,17,19.8z"/>
	</g>
</g>
</svg>
