<?xml version="1.0" encoding="utf-8"?>
<!-- Generator: Adobe Illustrator 21.0.0, SVG Export Plug-In . SVG Version: 6.00 Build 0)  -->
<svg version="1.1" id="Camada_1" xmlns="http://www.w3.org/2000/svg" xmlns:xlink="http://www.w3.org/1999/xlink" x="0px" y="0px"
	 viewBox="0 0 24 24" style="enable-background:new 0 0 24 24;" xml:space="preserve">
<style type="text/css">
	.st0{fill:#939393;}
</style>
<path class="st0" d="M11.9,3C6.9,3,3,7,3,12s4,9,9,9s9-4.1,9-9S16.9,3,11.9,3z M12.8,18.2H11v-1.8h1.8V18.2z M14.7,11.3l-0.8,0.8
	c-0.7,0.7-1.1,1.1-1.1,2.5H11v-0.4c0-1,0.4-1.9,1.1-2.5l1.1-1.1c0.3-0.3,0.5-0.8,0.5-1.2c0-1-0.8-1.7-1.7-1.7s-1.7,0.8-1.7,1.7H8.3
	c0-2,1.6-3.6,3.6-3.6s3.6,1.6,3.6,3.6C15.5,10,15.2,10.8,14.7,11.3z"/>
</svg>
