<?xml version="1.0" encoding="utf-8"?>
<!-- Generator: Adobe Illustrator 23.1.0, SVG Export Plug-In . SVG Version: 6.00 Build 0)  -->
<svg version="1.1" id="Camada_1" xmlns="http://www.w3.org/2000/svg" xmlns:xlink="http://www.w3.org/1999/xlink" x="0px" y="0px"
	 viewBox="0 0 24 24" style="enable-background:new 0 0 24 24;" xml:space="preserve">
<style type="text/css">
	.st0{fill:none;}
	.st1{fill:#FFFFFF;}
</style>
<path class="st0" d="M0,0h24v24H0V0z"/>
<path class="st1" d="M18.3,5.7c-0.4-0.4-1-0.4-1.4,0L12,10.6L7.1,5.7c-0.4-0.4-1-0.4-1.4,0s-0.4,1,0,1.4l4.9,4.9l-4.9,4.9
	c-0.4,0.4-0.4,1,0,1.4s1,0.4,1.4,0l4.9-4.9l4.9,4.9c0.4,0.4,1,0.4,1.4,0s0.4-1,0-1.4L13.4,12l4.9-4.9C18.7,6.7,18.7,6.1,18.3,5.7z"
	/>
</svg>
