<?xml version="1.0" encoding="utf-8"?>
<!-- Generator: Adobe Illustrator 23.1.0, SVG Export Plug-In . SVG Version: 6.00 Build 0)  -->
<svg version="1.1" id="Camada_1" xmlns="http://www.w3.org/2000/svg" xmlns:xlink="http://www.w3.org/1999/xlink" x="0px" y="0px"
	 viewBox="0 0 24 24" style="enable-background:new 0 0 24 24;" xml:space="preserve">
<style type="text/css">
	.st0{fill:none;}
	.st1{fill:#FFFFFF;}
</style>
<path class="st0" d="M0,0h24v24H0V0z"/>
<path class="st1" d="M6,19c0,1.1,0.9,2,2,2h8c1.1,0,2-0.9,2-2V9c0-1.1-0.9-2-2-2H8C6.9,7,6,7.9,6,9V19z M9,9h6c0.6,0,1,0.4,1,1v8
	c0,0.5-0.4,1-1,1H9c-0.6,0-1-0.5-1-1v-8C8,9.4,8.4,9,9,9z M15.5,4l-0.7-0.7C14.6,3.1,14.4,3,14.1,3H9.9C9.6,3,9.4,3.1,9.2,3.3L8.5,4
	H6C5.4,4,5,4.4,5,5s0.4,1,1,1h12c0.5,0,1-0.4,1-1s-0.5-1-1-1H15.5z"/>
</svg>
