<?xml version="1.0" encoding="utf-8"?>
<!-- Generator: Adobe Illustrator 25.1.0, SVG Export Plug-In . SVG Version: 6.00 Build 0)  -->
<svg version="1.1" id="Layer_1" xmlns="http://www.w3.org/2000/svg" xmlns:xlink="http://www.w3.org/1999/xlink" x="0px" y="0px"
	 viewBox="0 0 256 256" style="enable-background:new 0 0 256 256;" xml:space="preserve">
<style type="text/css">
	.st0{fill-rule:evenodd;clip-rule:evenodd;fill:#FFFFFF;}
	.st1{fill-rule:evenodd;clip-rule:evenodd;fill:#002F87;}
</style>
<g>
	<path class="st0" d="M128,256c70.5,0,128-57.5,128-128C256,57.5,198.5,0,128,0C57.5,0,0,57.5,0,128C0,198.5,57.5,256,128,256z"/>
	<path class="st1" d="M113.3,101.4l0.1,9.7l-16.1,0.1c-1,0-2.1,1.4-2.1,3.1l0.2,18.8c0,1.6,0.9,3.1,2.4,3.1l15.9-0.1l0.4,49.4
		c0,1.8,0.9,3.6,2.2,3.5l21.4-0.2c1.5,0,2.4-1.3,2.3-2.9l-0.4-50.1l18.8-0.2c1.8,0,2.4-1.8,2.3-3.6l-0.2-17.8c0-1.9-0.8-3.6-2.6-3.5
		l-18.5,0.2L139.1,99c-0.1-8.5,4.6-7.6,8.4-8.2c7.4-1.2,13.4,1.9,13.4-3.3l-0.1-17.3c0-1.7-1-3.1-2.6-3.1l-16.4,0.1
		c-2.9,0.2-5.6,0.5-7.8,1c-3,0.8-3,1-5.6,2c-0.9,0.4-1.7,0.9-2.5,1.4c-1.8,1.1-4.9,3.8-6.1,5.5C114.1,84.7,113.2,91.3,113.3,101.4z"
		/>
</g>
</svg>
