<?xml version="1.0" encoding="utf-8"?>
<!-- Generator: Adobe Illustrator 25.1.0, SVG Export Plug-In . SVG Version: 6.00 Build 0)  -->
<svg version="1.1" id="Layer_1" xmlns="http://www.w3.org/2000/svg" xmlns:xlink="http://www.w3.org/1999/xlink" x="0px" y="0px"
	 viewBox="0 0 256 256" style="enable-background:new 0 0 256 256;" xml:space="preserve">
<style type="text/css">
	.st0{fill-rule:evenodd;clip-rule:evenodd;fill:#FFFFFF;}
	.st1{fill-rule:evenodd;clip-rule:evenodd;fill:#002F87;}
</style>
<g>
	<path class="st0" d="M128,256c70.5,0,128-57.5,128-128C256,57.5,198.5,0,128,0C57.5,0,0,57.5,0,128C0,198.5,57.5,256,128,256z"/>
	<g>
		<g>
			<g>
				<path class="st1" d="M128,78c16.3,0,18.2,0.1,24.6,0.4c5.9,0.3,9.2,1.3,11.3,2.1c2.8,1.1,4.9,2.4,7,4.6c2.1,2.1,3.5,4.2,4.6,7
					c0.8,2.1,1.8,5.4,2.1,11.3c0.3,6.4,0.4,8.4,0.4,24.6c0,16.3-0.1,18.2-0.4,24.6c-0.3,5.9-1.3,9.2-2.1,11.3
					c-1.1,2.8-2.4,4.9-4.6,7c-2.1,2.1-4.2,3.5-7,4.6c-2.1,0.8-5.4,1.8-11.3,2.1c-6.4,0.3-8.4,0.4-24.6,0.4
					c-16.3,0-18.2-0.1-24.6-0.4c-5.9-0.3-9.2-1.3-11.3-2.1c-2.8-1.1-4.9-2.4-7-4.6c-2.1-2.1-3.5-4.2-4.6-7
					c-0.8-2.1-1.8-5.4-2.1-11.3c-0.3-6.4-0.4-8.4-0.4-24.6c0-16.3,0.1-18.2,0.4-24.6c0.3-5.9,1.3-9.2,2.1-11.3
					c1.1-2.8,2.4-4.9,4.6-7c2.1-2.1,4.2-3.5,7-4.6c2.1-0.8,5.4-1.8,11.3-2.1C109.8,78.1,111.7,78,128,78L128,78L128,78z M128,67
					c-16.6,0-18.6,0.1-25.1,0.4c-6.5,0.3-10.9,1.3-14.8,2.8c-4,1.6-7.4,3.6-10.8,7c-3.4,3.4-5.5,6.8-7,10.8
					c-1.5,3.9-2.5,8.3-2.8,14.8c-0.3,6.5-0.4,8.6-0.4,25.1s0.1,18.6,0.4,25.1c0.3,6.5,1.3,10.9,2.8,14.8c1.6,4,3.6,7.4,7,10.8
					c3.4,3.4,6.8,5.5,10.8,7c3.9,1.5,8.3,2.5,14.8,2.8c6.5,0.3,8.6,0.4,25.1,0.4s18.6-0.1,25.1-0.4c6.5-0.3,10.9-1.3,14.8-2.8
					c4-1.6,7.4-3.6,10.8-7c3.4-3.4,5.5-6.8,7-10.8c1.5-3.9,2.5-8.3,2.8-14.8c0.3-6.5,0.4-8.6,0.4-25.1s-0.1-18.6-0.4-25.1
					c-0.3-6.5-1.3-10.9-2.8-14.8c-1.6-4-3.6-7.4-7-10.8c-3.4-3.4-6.8-5.5-10.8-7c-3.9-1.5-8.3-2.5-14.8-2.8
					C146.6,67.1,144.6,67,128,67L128,67z M128,96.7c-17.3,0-31.3,14-31.3,31.3c0,17.3,14,31.3,31.3,31.3c17.3,0,31.3-14,31.3-31.3
					C159.3,110.7,145.3,96.7,128,96.7L128,96.7z M128,148.3c11.2,0,20.3-9.1,20.3-20.3s-9.1-20.3-20.3-20.3
					c-11.2,0-20.3,9.1-20.3,20.3S116.8,148.3,128,148.3L128,148.3z M167.9,95.5c0-4-3.3-7.3-7.3-7.3c-4,0-7.3,3.3-7.3,7.3
					c0,4,3.3,7.3,7.3,7.3C164.6,102.8,167.9,99.5,167.9,95.5z"/>
			</g>
		</g>
	</g>
</g>
</svg>
