<?xml version="1.0" encoding="utf-8"?>
<!-- Generator: Adobe Illustrator 23.1.0, SVG Export Plug-In . SVG Version: 6.00 Build 0)  -->
<svg version="1.1" id="Camada_1" xmlns="http://www.w3.org/2000/svg" xmlns:xlink="http://www.w3.org/1999/xlink" x="0px" y="0px"
	 viewBox="0 0 24 24" style="enable-background:new 0 0 24 24;" xml:space="preserve">
<style type="text/css">
	.st0{fill:none;}
	.st1{fill:#FFFFFF;}
</style>
<path class="st0" d="M0,0h24v24H0V0z"/>
<path class="st1" d="M19.3,17.3L18,16v-5c0-3.1-1.6-5.6-4.5-6.3V4c0-0.8-0.7-1.5-1.5-1.5S10.5,3.2,10.5,4v0.7C7.6,5.4,6,7.9,6,11v5
	l-1.3,1.3C4.1,17.9,4.5,19,5.4,19h13.2C19.5,19,19.9,17.9,19.3,17.3z M16,17H8v-6c0-2.5,1.5-4.5,4-4.5s4,2,4,4.5V17z M12,22
	c1.1,0,2-0.9,2-2h-4C10,21.1,10.9,22,12,22z"/>
</svg>
