<?xml version="1.0" encoding="utf-8"?>
<!-- Generator: Adobe Illustrator 25.1.0, SVG Export Plug-In . SVG Version: 6.00 Build 0)  -->
<svg version="1.1" id="Layer_1" xmlns="http://www.w3.org/2000/svg" xmlns:xlink="http://www.w3.org/1999/xlink" x="0px" y="0px"
	 viewBox="0 0 256 256" style="enable-background:new 0 0 256 256;" xml:space="preserve">
<style type="text/css">
	.st0{fill-rule:evenodd;clip-rule:evenodd;fill:#FFFFFF;}
	.st1{fill-rule:evenodd;clip-rule:evenodd;fill:#002F87;}
</style>
<g>
	<path class="st0" d="M128,256c70.5,0,128-57.5,128-128C256,57.5,198.5,0,128,0C57.5,0,0,57.5,0,128C0,198.5,57.5,256,128,256z"/>
	<path class="st1" d="M81.9,69.8c10,0,16.5,7.9,14.1,17.2c-1.8,7-9.1,11.1-17.4,9.7c-8.9-1.4-13.9-10.1-10.6-18.5
		C70.1,72.9,75.3,69.8,81.9,69.8L81.9,69.8z M135.3,118.4c0.5-0.5,0.7-0.7,0.8-0.9c6.9-10,16.7-13,28.1-11.2
		c13.2,2,21.7,11.3,23.9,25.5c0.5,3.4,0.8,6.7,0.8,10.1c0,14.1,0,28.2,0,42.3c0,1.6-0.4,2.1-2,2c-7.4-0.1-14.8-0.1-22.2,0
		c-1.6,0-2-0.4-2-2c0.1-13.2,0-26.3,0-39.5c0-3-0.2-6-1.1-8.9c-2.7-9.3-13.3-12.6-20.8-6.4c-4.1,3.3-5.7,7.8-5.6,12.9
		c0.1,12.4,0,24.8,0,37.3c0,1.6-0.1,3.3,0,4.9c0.1,1.4-0.5,1.7-1.7,1.7c-7.5-0.1-15.1-0.1-22.6,0c-1.4,0-1.9-0.3-1.8-1.8
		c0.1-11.2,0.2-22.4,0.2-33.6c0-13.8,0-27.6-0.1-41.3c0-1.5,0.3-2,1.9-1.9c7.5,0.1,15.1,0.1,22.6,0c1.4,0,1.7,0.4,1.7,1.7
		C135.2,112.2,135.3,115,135.3,118.4L135.3,118.4z M94.8,146.9c0,12.4,0,24.8,0,37.2c0,1.5-0.3,2.1-2,2.1c-7.5-0.1-14.9-0.1-22.4,0
		c-1.4,0-1.9-0.3-1.9-1.8c0-25,0-50.1,0-75.1c0-1.3,0.3-1.7,1.7-1.7c7.6,0.1,15.2,0.1,22.8,0c1.5,0,1.8,0.5,1.7,1.9
		C94.8,122,94.8,134.4,94.8,146.9z"/>
</g>
</svg>
