<?xml version="1.0" encoding="utf-8"?>
<!-- Generator: Adobe Illustrator 23.1.0, SVG Export Plug-In . SVG Version: 6.00 Build 0)  -->
<svg version="1.1" id="Layer_1" xmlns="http://www.w3.org/2000/svg" xmlns:xlink="http://www.w3.org/1999/xlink" x="0px" y="0px"
	 viewBox="0 0 297 297" style="enable-background:new 0 0 297 297;" xml:space="preserve">
<style type="text/css">
	.st0{fill:#2ECC71;}
	.st1{fill:#16A085;}
</style>
<g>
	<g id="XMLID_40_">
		<g>
			<path class="st0" d="M184.5,147.4l-37.3,24.8L110,147.4v-18.8l16.5,11c2.9,1.9,6.6,2.1,9.7,0.5c3.1-1.6,5-4.8,5-8.3l0-98.6
				c0-3.4,2.8-6.1,6.1-6.1c3.4,0,6.1,2.8,6.1,6.1v98.6c0,3.5,1.9,6.7,5,8.3c3.1,1.6,6.8,1.5,9.7-0.5l16.5-11
				C184.5,128.6,184.5,147.4,184.5,147.4z"/>
			<path class="st1" d="M263.9,140.2c0,64.3-52.3,116.6-116.6,116.6S30.6,204.5,30.6,140.2c0-21.8,6-42.8,17.3-61.2l18.6,11.5
				c-8,14-12.2,29.7-12.2,46c0,51.2,41.7,92.9,92.9,92.9s92.9-41.7,92.9-92.9c0-16.3-4.2-32-12.2-46l18.6-11.5
				C258,97.4,263.9,118.4,263.9,140.2z"/>
			<path d="M282.8,140.2c0,74.7-60.8,135.5-135.5,135.5S11.8,214.9,11.8,140.2c0-28.8,8.9-56.3,25.8-79.5c2.9-4,8.4-5.1,12.6-2.5
				l34.5,21.3c2.2,1.4,3.8,3.6,4.3,6.2c0.5,2.6-0.1,5.2-1.6,7.4c-9.2,12.7-14.1,27.7-14.1,43.4c0,40.8,33.2,74,74,74
				c40.8,0,74-33.2,74-74c0-15.7-4.9-30.7-14.1-43.4c-1.5-2.1-2.1-4.8-1.6-7.4c0.5-2.6,2.1-4.8,4.3-6.2l34.5-21.3
				c4.2-2.6,9.7-1.5,12.6,2.5C273.9,84,282.8,111.4,282.8,140.2z M147.3,256.8c64.3,0,116.6-52.3,116.6-116.6
				c0-21.8-6-42.8-17.3-61.2L228,90.5c8,14,12.2,29.7,12.2,46c0,51.2-41.7,92.9-92.9,92.9s-92.9-41.7-92.9-92.9
				c0-16.3,4.2-32,12.2-46L48,79.1c-11.4,18.4-17.3,39.3-17.3,61.2C30.6,204.5,83,256.8,147.3,256.8z"/>
			<path d="M152.5,191.5c-3.2,2.1-7.3,2.1-10.5,0l-46.7-31.1c-2.6-1.7-4.2-4.7-4.2-7.8V111c0-3.5,1.9-6.7,5-8.3
				c3.1-1.6,6.8-1.5,9.7,0.5l16.5,11l0-80.9c0-13.8,11.2-25,25-25c13.8,0,25,11.2,25,25v80.9l16.5-11c2.9-1.9,6.6-2.1,9.7-0.5
				c3.1,1.6,5,4.8,5,8.3v41.5c0,3.2-1.6,6.1-4.2,7.8L152.5,191.5z M147.3,172.3l37.3-24.8v-18.8l-16.5,11c-2.9,1.9-6.6,2.1-9.7,0.5
				c-3.1-1.6-5-4.8-5-8.3V33.2c0-3.4-2.8-6.1-6.1-6.1c-3.4,0-6.1,2.8-6.1,6.1l0,98.6c0,3.5-1.9,6.7-5,8.3c-3.1,1.6-6.8,1.5-9.7-0.5
				l-16.5-11v18.8L147.3,172.3z"/>
		</g>
	</g>
</g>
</svg>
