<?xml version="1.0" encoding="utf-8"?>
<!-- Generator: Adobe Illustrator 23.1.0, SVG Export Plug-In . SVG Version: 6.00 Build 0)  -->
<svg version="1.1" id="Camada_1" xmlns="http://www.w3.org/2000/svg" xmlns:xlink="http://www.w3.org/1999/xlink" x="0px" y="0px"
	 viewBox="0 0 24 24" style="enable-background:new 0 0 24 24;" xml:space="preserve">
<style type="text/css">
	.st0{fill:none;}
	.st1{fill:#FFFFFF;}
</style>
<path class="st0" d="M0,0h24v24H0V0z"/>
<path class="st1" d="M20,4H4C2.9,4,2,4.9,2,6v12c0,1.1,0.9,2,2,2h16c1.1,0,2-0.9,2-2V6C22,4.9,21.1,4,20,4z M19.6,8.3l-6.5,4.1
	c-0.6,0.4-1.5,0.4-2.1,0L4.4,8.3C4.2,8.1,4,7.8,4,7.5c0-0.7,0.7-1.1,1.3-0.7L12,11l6.7-4.2C19.3,6.5,20,6.9,20,7.5
	C20,7.8,19.9,8.1,19.6,8.3z"/>
</svg>
