<?xml version="1.0" encoding="utf-8"?>
<!-- Generator: Adobe Illustrator 23.1.0, SVG Export Plug-In . SVG Version: 6.00 Build 0)  -->
<svg version="1.1" id="Camada_1" xmlns="http://www.w3.org/2000/svg" xmlns:xlink="http://www.w3.org/1999/xlink" x="0px" y="0px"
	 viewBox="0 0 24 24" style="enable-background:new 0 0 24 24;" xml:space="preserve">
<style type="text/css">
	.st0{fill:none;}
	.st1{fill:#FFFFFF;}
</style>
<path class="st0" d="M0,0h24v24H0V0z"/>
<path class="st1" d="M12.4,10.8c-1.5-0.4-1.9-0.8-1.9-1.4c0-0.7,0.7-1.2,1.7-1.2c0.9,0,1.4,0.3,1.5,0.9c0.1,0.3,0.3,0.5,0.6,0.5h0.2
	c0.4,0,0.7-0.4,0.6-0.8c-0.3-0.8-0.9-1.4-1.9-1.6V6.7c0-0.5-0.4-1-1-1c-0.5,0-1,0.4-1,1v0.4C10,7.4,8.9,8.2,8.9,9.4
	c0,1.5,1.2,2.2,3,2.7c1.6,0.4,1.9,1,1.9,1.6c0,0.4-0.3,1.2-1.7,1.2c-1.1,0-1.6-0.4-1.8-0.9c-0.1-0.3-0.3-0.4-0.6-0.4H9.6
	c-0.4,0-0.7,0.4-0.6,0.8c0.4,0.9,1.2,1.4,2.2,1.6v0.4c0,0.5,0.4,1,1,1c0.5,0,1-0.4,1-1V16c1.3-0.2,2.3-1,2.3-2.3
	C15.4,11.8,13.8,11.2,12.4,10.8z"/>
<path class="st1" d="M12,1.5C6.5,1.5,2,6,2,11.5s4.5,10,10,10s10-4.5,10-10S17.5,1.5,12,1.5z M12,19.5c-4.4,0-8-3.6-8-8s3.6-8,8-8
	s8,3.6,8,8S16.4,19.5,12,19.5z"/>
</svg>
