<?xml version="1.0" encoding="utf-8"?>
<!-- Generator: Adobe Illustrator 25.1.0, SVG Export Plug-In . SVG Version: 6.00 Build 0)  -->
<svg version="1.1" id="Layer_1" xmlns="http://www.w3.org/2000/svg" xmlns:xlink="http://www.w3.org/1999/xlink" x="0px" y="0px"
	 viewBox="0 0 256 256" style="enable-background:new 0 0 256 256;" xml:space="preserve">
<style type="text/css">
	.st0{fill-rule:evenodd;clip-rule:evenodd;fill:#FFFFFF;}
	.st1{fill-rule:evenodd;clip-rule:evenodd;fill:#1D3383;}
</style>
<g>
	<path class="st0" d="M128,256c70.5,0,128-57.5,128-128C256,57.5,198.5,0,128,0C57.5,0,0,57.5,0,128C0,198.5,57.5,256,128,256z"/>
	<path class="st1" d="M186.4,98.5c-1.4-5.3-5.5-9.4-10.8-10.8c-9.5-2.6-47.6-2.6-47.6-2.6s-38.1,0-47.6,2.6
		C75.1,89,71,93.2,69.6,98.5C67,108,67,128,67,128s0,20,2.5,29.5c1.4,5.3,5.5,9.4,10.8,10.8c9.5,2.6,47.6,2.6,47.6,2.6
		s38.1,0,47.6-2.6c5.2-1.4,9.4-5.6,10.8-10.8C189,148,189,128,189,128S189,108,186.4,98.5L186.4,98.5z M115.5,146.1v-36.3l31.9,18.1
		L115.5,146.1z"/>
</g>
</svg>
